<svg width="1017" height="1017" viewBox="0 0 1017 1017" fill="none" xmlns="http://www.w3.org/2000/svg">
<path d="M457.542 153.715C471.479 153.062 489.814 153.56 504.087 153.559L592.679 153.532L642.567 153.427C662.974 153.396 674.149 149.128 686.251 168.263C687.968 188.347 686.991 221.73 686.991 242.49L686.922 375.137C686.883 394.228 686.676 413.309 686.952 432.397C687.189 449.288 691.992 463.623 703.719 476.039C711.087 483.929 720.684 489.388 731.238 491.691C745.017 494.746 774.636 493.795 790.349 493.788L892.098 493.786C904.684 493.818 917.299 493.373 929.875 493.522C938.821 493.628 943.792 495.789 949.739 502.538C953.32 506.608 953.872 514.278 953.98 519.758C954.375 541.345 954.188 563.227 954.188 584.834L954.197 709.16L954.276 798.956C954.286 812.488 954.937 836.426 953.616 849.061C947.954 857.396 946.09 859.191 937.095 863.629C891.112 862.337 844.35 864.517 798.328 863.56C767.633 862.929 734.591 866.362 704.854 858.402C655.103 845.086 615.068 804.42 602.374 754.59C596.969 733.512 597.817 712.03 597.817 690.538L597.867 628.428C597.916 595.474 601.25 571.131 562.724 561.8C536.941 560.69 528.715 575.424 514.265 593.61C505.576 604.549 496.827 615.694 488.088 626.613L367.645 777.207C359.209 787.731 301.828 862.643 294.652 862.85C225.866 864.853 156.069 862.505 87.0404 863.689C71.0185 863.965 63.4455 851.675 63.1733 836.772C65.1193 772.551 60.4086 702.226 65.3383 638.656C65.575 635.608 97.9946 595.918 101.588 591.428L189.688 481.561L361.695 266.327C388.663 232.556 415.366 198.267 442.915 164.943C447.57 159.306 450.736 156.276 457.542 153.715Z" fill="white"/>
</svg>
